<?xml version="1.0" encoding="iso-8859-1"?>
<!-- Generator: Adobe Illustrator 19.0.0, SVG Export Plug-In . SVG Version: 6.00 Build 0)  -->
<svg version="1.1" id="Capa_1" xmlns="http://www.w3.org/2000/svg" xmlns:xlink="http://www.w3.org/1999/xlink" x="0px" y="0px"
	 viewBox="0 0 362 362" style="enable-background:new 0 0 362 362;" xml:space="preserve">
<g>
	<g>
		<path style="fill:#00ACEA;" d="M351.62,164.84v38.13l-27.92,2.73c-2.74,12.367-7.7,24.134-14.64,34.73l18.05,21.79l-26.9,26.89
			l-21.79-18.04c-10.565,6.998-22.343,11.963-34.73,14.64l-2.72,28.26H199v-80.33h0.04c27.467,12.612,59.958,0.568,72.569-26.899
			s0.568-59.958-26.899-72.569c-14.51-6.662-31.206-6.655-45.71,0.018V53.84h41.97l2.72,28.26
			c12.365,2.745,24.131,7.705,34.73,14.64l21.79-18.04l26.56,26.9l-18.05,21.79c7.002,10.563,11.967,22.342,14.64,34.73
			L351.62,164.84z"/>
		<path style="fill:#00EFD1;" d="M199,233.64v40.71H36.59c-14.477-0.002-26.212-11.739-26.21-26.216c0-0.001,0-0.003,0-0.004v-68.25
			c-0.003-10.816,4.454-21.156,12.32-28.58l11.27-10.65v-0.44H199V233.64z M111.31,232.84v-42.82H48.83v42.82L111.31,232.84z"/>
		<g>
			<path style="fill:#D4E1F4;" d="M199,134.19v6.02h-30.46c-0.385-26.783-22.408-48.183-49.191-47.799
				c-26.241,0.377-47.422,21.558-47.799,47.799H32.66l29.93-80.76c3.808-10.283,13.614-17.109,24.58-17.11H199V134.19z"/>
			<path style="fill:#D4E1F4;" d="M168.54,140.21H71.55c0.385-26.783,22.408-48.183,49.191-47.799
				C146.982,92.788,168.163,113.969,168.54,140.21L168.54,140.21z"/>
			<rect x="48.83" y="190.02" style="fill:#D4E1F4;" width="62.48" height="42.82"/>
			<path style="fill:#D4E1F4;" d="M84.65,274.79v24.46c0.004,14.477-11.729,26.216-26.206,26.22c-0.001,0-0.003,0-0.004,0H36.59
				c-14.477-0.002-26.212-11.739-26.21-26.216c0-0.001,0-0.003,0-0.004v-51.12c-0.004,14.477,11.729,26.216,26.206,26.22
				c0.001,0,0.003,0,0.004,0h48.06V274.79z"/>
		</g>
	</g>
	<g>
		<path style="fill:#083863;" d="M111.31,242.84H48.83c-5.523,0-10-4.477-10-10v-42.82c0-5.523,4.477-10,10-10h62.48
			c5.523,0,10,4.477,10,10v42.82C121.31,238.363,116.833,242.84,111.31,242.84z M58.83,222.84h42.48v-22.82H58.83V222.84z"/>
		<path style="fill:#083863;" d="M352.768,154.886l-21.339-2.045c-2.478-8.579-5.965-16.834-10.389-24.591l13.454-16.271
			c3.269-3.958,3.01-9.75-0.6-13.4l-26.566-26.9c-3.643-3.693-9.506-3.986-13.5-0.676l-16.327,13.515
			c-7.75-4.397-15.985-7.879-24.539-10.375l-2.046-21.177c-0.499-5.111-4.811-8.998-9.946-8.966H209V14c0-5.523-4.477-10-10-10
			s-10,4.477-10,10v18H87.17c-15.163,0.116-28.678,9.59-33.957,23.805l-29.93,80.845c-0.044,0.118-0.069,0.281-0.108,0.4L15.65,144
			C5.745,153.316,0.089,166.283,0,179.88v119.37C0,319.222,16.624,335,36.59,335h21.85C78.406,335,95,319.222,95,299.25V284h94v64
			c0,5.523,4.477,10,10,10s10-4.477,10-10v-24h31.97c5.154-0.007,9.461-3.925,9.954-9.056l2.046-21.257
			c8.577-2.464,16.831-5.936,24.591-10.342l16.272,13.469c3.974,3.289,9.798,3.016,13.446-0.631l26.9-26.89
			c3.651-3.649,3.925-9.477,0.632-13.452l-13.523-16.323c4.402-7.752,7.885-15.991,10.38-24.549l21.114-2.046
			c5.16-0.484,9.131-4.771,9.218-9.953v-38.13C361.913,159.652,357.934,155.362,352.768,154.886z M209,141.079
			c23.653-7.117,48.597,6.287,55.714,29.94s-6.287,48.597-29.94,55.714c-8.405,2.529-17.369,2.529-25.775,0V141.079z M71.967,62.651
			C74.331,56.288,80.382,52.048,87.17,52H189v78h-11.333c-4.761-27-28.781-48.49-57.627-48.49S67.183,103,62.423,130H47.031
			L71.967,62.651z M157.214,130H82.875c4.415-16,19.4-28.49,37.165-28.49S152.8,114,157.214,130z M75,299.25
			c0,8.944-7.621,15.75-16.56,15.75H36.59C27.651,315,20,308.194,20,299.25V280.5c5.193,2.411,10.866,3.608,16.59,3.5H75V299.25z
			 M36.59,264C27.651,264,20,257.074,20,248.13v-68.25c0.08-8.118,3.467-15.852,9.378-21.417L38.412,150H189v39h-33.35
			c-5.523,0-10,4.477-10,10s4.477,10,10,10H189v5h-33.35c-5.523,0-10,4.477-10,10s4.477,10,10,10H189v30H36.59z M342,193.9
			l-19.083,1.848c-4.349,0.416-7.94,3.579-8.9,7.841c-2.509,11.191-7.021,21.836-13.317,31.421c-2.371,3.661-2.096,8.436,0.679,11.8
			l12.229,14.776L299.583,275.6L284.8,263.367c-3.403-2.818-8.252-3.069-11.927-0.617c-9.525,6.299-20.139,10.771-31.3,13.187
			c-4.253,0.927-7.421,4.496-7.837,8.829L231.886,304H209v-56.668c35.029,7.134,69.208-15.479,76.342-50.508
			s-15.479-69.208-50.508-76.342c-8.524-1.736-17.31-1.736-25.834,0V64h22.886l1.85,19.139c0.42,4.321,3.591,7.871,7.837,8.775
			c11.188,2.489,21.835,6.979,31.427,13.252c3.668,2.362,8.443,2.073,11.8-0.713l14.733-12.2L313.3,106.19l-12.278,14.822
			c-2.819,3.403-3.071,8.252-0.619,11.928c6.303,9.52,10.774,20.132,13.186,31.291c1.003,4.279,4.63,7.438,9.006,7.843l19.405,1.85
			V193.9z"/>
	</g>
</g>
<g>
</g>
<g>
</g>
<g>
</g>
<g>
</g>
<g>
</g>
<g>
</g>
<g>
</g>
<g>
</g>
<g>
</g>
<g>
</g>
<g>
</g>
<g>
</g>
<g>
</g>
<g>
</g>
<g>
</g>
</svg>
